<?xml version="1.0" encoding="UTF-8"?>
<svg version="1.1" xmlns="http://www.w3.org/2000/svg" width="50" height="50">
<path d="M0 0 C63.36 0 126.72 0 192 0 C192 28.71 192 57.42 192 87 C128.64 87 65.28 87 0 87 C0 58.29 0 29.58 0 0 Z " fill="#FCFDFD" transform="translate(0,0)"/>
<path d="M0 0 C0 3 0 3 -1 6 C-1.85245641 10.78957469 -1.84993609 14.51673775 0.609375 18.80859375 C3.9768831 23.16989653 6.56952842 26.44125353 12 28 C14.43793514 28.23869189 14.43793514 28.23869189 16.8125 28.125 C17.60269531 28.10695313 18.39289062 28.08890625 19.20703125 28.0703125 C19.79871094 28.04710938 20.39039063 28.02390625 21 28 C19.75916112 32.48682188 18.33308398 35.17157487 15.04296875 38.453125 C14.25986328 39.236875 13.47675781 40.020625 12.66992188 40.828125 C11.85072266 41.62734375 11.03152344 42.4265625 10.1875 43.25 C9.37990234 44.0646875 8.57230469 44.879375 7.74023438 45.71875 C2.10286956 51.29609373 -1.77845173 54.26999294 -9.9375 54.375 C-15.11969386 54.27326368 -18.12536284 53.68090531 -22 50 C-25.40634045 45.48890049 -27.14422574 41.95411607 -27.3125 36.3125 C-27.34988281 35.50425781 -27.38726563 34.69601563 -27.42578125 33.86328125 C-25.93885379 23.86403513 -18.13477822 17.6650292 -11.25 11 C-10.15923042 9.92932781 -9.06937799 8.85772041 -7.98046875 7.78515625 C-5.33080768 5.17922915 -2.66893194 2.58620396 0 0 Z " fill="#7EF3AB" transform="translate(34,19)"/>
<path d="M0 0 C2.660625 -0.0825 5.32125 -0.165 8.0625 -0.25 C8.8862915 -0.28641602 9.71008301 -0.32283203 10.55883789 -0.36035156 C16.1798267 -0.44381493 19.39052435 0.76317704 24 4 C25.53214888 7.06429776 25.22938548 9.6165642 25 13 C23.625 15.9375 23.625 15.9375 22 18 C21.34 18 20.68 18 20 18 C20 18.99 20 19.98 20 21 C20.66 21 21.32 21 22 21 C25 27.625 25 27.625 25 31 C21.875 31.5 21.875 31.5 18 31 C15.5118883 28.63602403 13.64782223 26.00591748 12 23 C12 22.34 12 21.68 12 21 C10.68 21 9.36 21 8 21 C8 24.3 8 27.6 8 31 C5.36 31 2.72 31 0 31 C0 20.77 0 10.54 0 0 Z " fill="#254E4E" transform="translate(107,25)"/>
<path d="M0 0 C1.03769531 -0.02578125 2.07539063 -0.0515625 3.14453125 -0.078125 C7.53693492 0.39551031 10.10871943 2.17121943 13.1875 5.25 C13.1875 6.57 13.1875 7.89 13.1875 9.25 C10.5475 9.25 7.9075 9.25 5.1875 9.25 C4.8575 8.26 4.5275 7.27 4.1875 6.25 C1.8775 6.25 -0.4325 6.25 -2.8125 6.25 C-2.25280881 8.75990809 -2.25280881 8.75990809 -0.8125 11.25 C1.93829414 12.36057933 1.93829414 12.36057933 5.125 12.8125 C10.747035 13.8030165 10.747035 13.8030165 13.03515625 16.125 C14.79476911 19.36984541 14.69620634 21.62546733 14.1875 25.25 C11.52400949 28.48938035 8.48408631 31.95253739 4.13671875 32.515625 C-6.62119565 32.44130435 -6.62119565 32.44130435 -10.6875 28.375 C-11.8125 26.25 -11.8125 26.25 -11.8125 22.25 C-10.53375 22.188125 -9.255 22.12625 -7.9375 22.0625 C-6.85855469 22.01029297 -6.85855469 22.01029297 -5.7578125 21.95703125 C-5.11585938 22.05371094 -4.47390625 22.15039062 -3.8125 22.25 C-3.1525 23.24 -2.4925 24.23 -1.8125 25.25 C1.27115871 25.5002157 1.27115871 25.5002157 4.1875 25.25 C4.5175 23.6 4.8475 21.95 5.1875 20.25 C4.28386719 20.06824219 3.38023437 19.88648437 2.44921875 19.69921875 C1.26972656 19.44785156 0.09023437 19.19648437 -1.125 18.9375 C-2.29675781 18.69386719 -3.46851563 18.45023438 -4.67578125 18.19921875 C-7.73776182 17.27261691 -9.01338232 16.83161064 -10.8125 14.25 C-11.53488405 11.26414591 -12.02177223 9.2321293 -11.8125 6.25 C-8.49809361 0.87837586 -6.08890258 0.09009474 0 0 Z " fill="#2A5353" transform="translate(161.8125,24.75)"/>
<path d="M0 0 C2.97 0 5.94 0 9 0 C9 10.23 9 20.46 9 31 C6.03 31 3.06 31 0 31 C0 20.77 0 10.54 0 0 Z " fill="#325A5A" transform="translate(92,25)"/>
<path d="M0 0 C2.64 0 5.28 0 8 0 C8 10.23 8 20.46 8 31 C5.36 31 2.72 31 0 31 C0 20.77 0 10.54 0 0 Z " fill="#264F4F" transform="translate(137,25)"/>
<path d="M0 0 C6.0546875 -0.1953125 6.0546875 -0.1953125 8 0 C10 2 10 2 10.125 4.625 C10.08375 5.40875 10.0425 6.1925 10 7 C6.78548731 8.60725635 3.56387464 8.05748185 0 8 C0 5.36 0 2.72 0 0 Z " fill="#D3DCDD" transform="translate(114,31)"/>
<path d="M0 0 C2.31 0 4.62 0 7 0 C7.33 0.66 7.66 1.32 8 2 C9.89533342 2.46523063 9.89533342 2.46523063 12.0625 2.625 C13.361875 2.74875 14.66125 2.8725 16 3 C15.67 3.66 15.34 4.32 15 5 C12.9375 5.625 12.9375 5.625 11 6 C11 6.66 11 7.32 11 8 C9.53984709 7.71758359 8.08190207 7.42373386 6.625 7.125 C5.81289062 6.96257813 5.00078125 6.80015625 4.1640625 6.6328125 C2 6 2 6 0 4 C0 2.68 0 1.36 0 0 Z " fill="#DEE5E5" transform="translate(159,31)"/>
<path d="M0 0 C1.25683594 0.49113281 1.25683594 0.49113281 2.5390625 0.9921875 C6.3312931 2.09647136 9.43553543 2.19932952 13.375 2.125 C15.24285156 2.09792969 15.24285156 2.09792969 17.1484375 2.0703125 C18.08945312 2.04710937 19.03046875 2.02390625 20 2 C18.68 3.32 17.36 4.64 16 6 C16 5.34 16 4.68 16 4 C15.01 4.495 15.01 4.495 14 5 C8.76884713 5.40239637 5.47503824 4.77026177 1 2 C0.67 1.34 0.34 0.68 0 0 Z " fill="#A6F9DF" transform="translate(39,43)"/>
<path d="M0 0 C-1.32 0.99 -2.64 1.98 -4 3 C-4 2.34 -4 1.68 -4 1 C-6.64 1 -9.28 1 -12 1 C-12 0.67 -12 0.34 -12 0 C-3.42857143 -1.28571429 -3.42857143 -1.28571429 0 0 Z " fill="#B2FAEB" transform="translate(59,46)"/>
<path d="M0 0 C0.33 0.66 0.66 1.32 1 2 C-0.32 3.65 -1.64 5.3 -3 7 C-3.99 6.67 -4.98 6.34 -6 6 C-4.02 4.02 -2.04 2.04 0 0 Z " fill="#E7FDFA" transform="translate(64,38)"/>
</svg>
