<?xml version="1.0" encoding="UTF-8"?>
<svg version="1.1" xmlns="http://www.w3.org/2000/svg" width="192" height="87">
<path d="M0 0 C63.36 0 126.72 0 192 0 C192 28.71 192 57.42 192 87 C128.64 87 65.28 87 0 87 C0 58.29 0 29.58 0 0 Z " fill="none" transform="translate(0,0)"/>
<path d="M0 0 C4.79471148 3.31041993 7.90670152 7.3425309 9.58203125 12.9375 C10.48249748 18.35064757 9.55574564 23.3296678 6.58203125 27.9375 C3.74767256 31.43016136 0.66961844 34.66910815 -2.41796875 37.9375 C-3.35055392 38.96743571 -4.2801708 40.00006574 -5.20703125 41.03515625 C-13.9051355 50.72685856 -13.9051355 50.72685856 -18.82421875 54.625 C-20.48032469 55.93325888 -20.48032469 55.93325888 -22.01171875 57.625 C-25.51226688 61.1915962 -27.92399759 62.35631137 -32.98046875 62.5 C-37.39134842 62.24517614 -40.74458859 61.54753327 -44.41796875 58.9375 C-44.91296875 57.4525 -44.91296875 57.4525 -45.41796875 55.9375 C-46.07796875 55.9375 -46.73796875 55.9375 -47.41796875 55.9375 C-50.98930269 49.91087398 -52.59478127 44.96656935 -51.41796875 37.9375 C-49.34666065 31.52630826 -45.71026452 27.57396291 -41.04296875 22.8125 C-40.33487061 22.07765381 -39.62677246 21.34280762 -38.8972168 20.58569336 C-37.44745628 19.08589068 -35.99294981 17.59066082 -34.53369141 16.10009766 C-32.55952284 14.08219029 -30.60242287 12.04914091 -28.6484375 10.01171875 C-27.51029455 8.83999852 -26.37103745 7.6693591 -25.23046875 6.5 C-24.71500488 5.96294434 -24.19954102 5.42588867 -23.66845703 4.87255859 C-17.39378529 -1.45590196 -8.44543841 -3.71108117 0 0 Z " fill="#7FF3AB" transform="translate(58.41796875,12.0625)"/>
<path d="M0 0 C4.79471148 3.31041993 7.90670152 7.3425309 9.58203125 12.9375 C10.50415348 18.48083249 9.34775356 23.07364352 6.58203125 27.9375 C4.20703125 29.6875 4.20703125 29.6875 1.58203125 30.9375 C0.49921875 31.7728125 0.49921875 31.7728125 -0.60546875 32.625 C-5.47782187 34.89876479 -10.53143261 34.77940637 -15.66796875 33.28125 C-20.6642648 31.08590779 -24.23506628 27.9961392 -26.41796875 22.9375 C-27.08129607 19.54661032 -27.27528912 16.40937103 -27.41796875 12.9375 C-31.70796875 16.8975 -35.99796875 20.8575 -40.41796875 24.9375 C-40.41796875 20.82144693 -38.87119163 20.00374286 -36 17.12109375 C-35.07509766 16.19232422 -34.15019531 15.26355469 -33.19726562 14.30664062 C-32.70991943 13.82557861 -32.22257324 13.3445166 -31.72045898 12.84887695 C-30.24299262 11.38738843 -28.78210215 9.91071474 -27.32226562 8.43164062 C-26.39091797 7.50416016 -25.45957031 6.57667969 -24.5 5.62109375 C-23.21959839 4.34576782 -23.21959839 4.34576782 -21.91333008 3.04467773 C-15.95803465 -1.98419957 -7.19451676 -3.16140316 0 0 Z " fill="#F8FEFB" transform="translate(58.41796875,12.0625)"/>
<path d="M0 0 C2.51625 -0.061875 5.0325 -0.12375 7.625 -0.1875 C8.79603271 -0.22846802 8.79603271 -0.22846802 9.99072266 -0.27026367 C14.73414065 -0.32625985 17.86872694 0.43811445 22 3 C24.51012963 5.51012963 24.29721609 6.46805237 24.3125 9.9375 C24.32925781 10.81277344 24.34601563 11.68804687 24.36328125 12.58984375 C23.9279173 15.47822606 23.01138674 16.01012542 21 18 C20.85212983 20.07060488 20.85212983 20.07060488 21.3125 22.1875 C21.6528125 24.0746875 21.6528125 24.0746875 22 26 C22.66 26 23.32 26 24 26 C24.33 27.65 24.66 29.3 25 31 C22.69 31 20.38 31 18 31 C17.3490741 29.75264433 16.70448331 28.50198168 16.0625 27.25 C15.70285156 26.55390625 15.34320313 25.8578125 14.97265625 25.140625 C14.04441818 23.09775567 13.46833422 21.18884624 13 19 C11.02 19 9.04 19 7 19 C7 22.96 7 26.92 7 31 C4.69 31 2.38 31 0 31 C0 20.77 0 10.54 0 0 Z " fill="#FFFFFF" transform="translate(107,25)"/>
<path d="M0 0 C2.64649893 1.39035136 3.94074808 2.72954276 6 5 C6 5.99 6 6.98 6 8 C-0.625 8.25 -0.625 8.25 -4 6 C-5.32 6 -6.64 6 -8 6 C-8.66 7.65 -9.32 9.3 -10 11 C-9.10796875 11.18175781 -8.2159375 11.36351562 -7.296875 11.55078125 C-6.12640625 11.80214844 -4.9559375 12.05351563 -3.75 12.3125 C-2.58984375 12.55613281 -1.4296875 12.79976562 -0.234375 13.05078125 C2.92758007 13.97874633 4.76608124 14.59087193 7 17 C7.390625 19.48046875 7.390625 19.48046875 7.25 22.1875 C7.21390625 23.08855469 7.1778125 23.98960938 7.140625 24.91796875 C7.07101563 25.94857422 7.07101563 25.94857422 7 27 C6.34 27 5.68 27 5 27 C4.67 27.99 4.34 28.98 4 30 C-0.66418251 32.33209126 -6.93695597 31.52679071 -12 31 C-14.83233921 29.64091209 -15.35143318 28.78988231 -17 26 C-17 24.68 -17 23.36 -17 22 C-12.48589342 21.62382445 -12.48589342 21.62382445 -10.0625 23.5 C-7.3050831 25.50539411 -5.32679926 25.22682722 -2 25 C-1.4465236 22.92446352 -1 21.15634036 -1 19 C-1.58007812 18.97421875 -2.16015625 18.9484375 -2.7578125 18.921875 C-8.09808651 18.53413233 -12.10156121 17.99839876 -16 14 C-16.80161657 10.84000423 -16.79600918 8.16079558 -16 5 C-11.30501661 0.05791222 -6.60942251 -1.00746641 0 0 Z " fill="#FFFFFF" transform="translate(168,25)"/>
<path d="M0 0 C2.31 0 4.62 0 7 0 C7 10.23 7 20.46 7 31 C4.69 31 2.38 31 0 31 C0 20.77 0 10.54 0 0 Z " fill="#FFFFFF" transform="translate(93,25)"/>
<path d="M0 0 C1.98 0 3.96 0 6 0 C6 10.23 6 20.46 6 31 C4.02 31 2.04 31 0 31 C0 20.77 0 10.54 0 0 Z " fill="#FFFFFF" transform="translate(138,25)"/>
<path d="M0 0 C6.625 -0.125 6.625 -0.125 10 1 C10.88910615 3.90980194 11.22167778 5.45319482 10.0625 8.3125 C6.83426664 10.95378184 4.08676931 10.26798487 0 10 C0 6.7 0 3.4 0 0 Z " fill="#7CCFC5" transform="translate(114,30)"/>
<path d="M0 0 C0.99 0.33 1.98 0.66 3 1 C1.50260417 2.20442708 0.00520833 3.40885417 -1.4921875 4.61328125 C-4.20389097 7.10720542 -4.98122115 8.6773794 -5.1953125 12.35546875 C-5.17210938 13.62003906 -5.14890625 14.88460938 -5.125 16.1875 C-5.09792969 18.09595703 -5.09792969 18.09595703 -5.0703125 20.04296875 C-5.04710938 21.01878906 -5.02390625 21.99460937 -5 23 C-5.66 22.67 -6.32 22.34 -7 22 C-7.60107745 18.68273295 -7.74433485 15.36625785 -8 12 C-12.29 15.96 -16.58 19.92 -21 24 C-21 21 -21 21 -19.07226562 18.73168945 C-18.19248047 17.86761475 -17.31269531 17.00354004 -16.40625 16.11328125 C-15.94013306 15.65140915 -15.47401611 15.18953705 -14.99377441 14.71366882 C-13.5027371 13.23943048 -12.00161128 11.77595912 -10.5 10.3125 C-9.48759946 9.31514472 -8.47587189 8.31710583 -7.46484375 7.31835938 C-4.98432371 4.87092436 -2.49464911 2.43304113 0 0 Z " fill="#B7F9E3" transform="translate(39,13)"/>
<path d="M0 0 C0.66 0.33 1.32 0.66 2 1 C-1.86364295 5.48717034 -5.74790208 9.87675353 -10 14 C-9.38722388 11.03824877 -8.74627478 9.61941217 -7 7 C-7.99 7.495 -7.99 7.495 -9 8 C-14.23115287 8.40239637 -17.52496176 7.77026177 -22 5 C-22.33 4.34 -22.66 3.68 -23 3 C-21.824375 3.495 -21.824375 3.495 -20.625 4 C-14.96816525 5.56050614 -9.42322896 6.11064661 -4 3.625 C-1.93783176 2.0064312 -1.93783176 2.0064312 0 0 Z " fill="#ADF9E0" transform="translate(62,40)"/>
</svg>
